<?xml version="1.0" encoding="utf-8"?>
<!-- Svg Vector Icons : http://www.onlinewebfonts.com/icon -->
<!DOCTYPE svg PUBLIC "-//W3C//DTD SVG 1.1//EN" "http://www.w3.org/Graphics/SVG/1.1/DTD/svg11.dtd">
<svg version="1.1" xmlns="http://www.w3.org/2000/svg" xmlns:xlink="http://www.w3.org/1999/xlink" x="0px" y="0px" viewBox="0 0 256 256" enable-background="new 0 0 256 256" xml:space="preserve">
<metadata> Svg Vector Icons : http://www.onlinewebfonts.com/icon </metadata>
<g><g><path fill="#000000" d="M244.1,235.2l-4.6-4.7l-2.9-2.9l-57.4-57.3c33.3-38,31.9-95.8-4.3-132C137.2,0.6,76,0.6,38.3,38.3C0.6,76,0.6,137.2,38.3,174.9c36.2,36.2,94,37.6,132,4.3l57.4,57.4l2.9,2.9l4.6,4.6c1.2,1.2,2.7,1.9,4.5,1.9c1.8,0,3.3-0.6,4.5-1.9c1.2-1.2,1.9-2.7,1.9-4.5C246,237.9,245.3,236.4,244.1,235.2z M47.2,166c-32.8-32.8-32.8-86,0-118.7c32.8-32.8,86-32.8,118.7,0c32.8,32.8,32.8,86,0,118.7C133.2,198.8,80,198.8,47.2,166z"/></g></g>
</svg>