<?xml version="1.0" encoding="utf-8"?>
<!-- Svg Vector Icons : http://www.onlinewebfonts.com/icon -->
<!DOCTYPE svg PUBLIC "-//W3C//DTD SVG 1.1//EN" "http://www.w3.org/Graphics/SVG/1.1/DTD/svg11.dtd">
<svg version="1.1" xmlns="http://www.w3.org/2000/svg" xmlns:xlink="http://www.w3.org/1999/xlink" x="0px" y="0px" viewBox="0 0 256 256" enable-background="new 0 0 256 256" xml:space="preserve">
<metadata> Svg Vector Icons : http://www.onlinewebfonts.com/icon </metadata>
<g><g><path fill="#000000" d="M190.5,121.1c0,34.5-28,62.5-62.5,62.5c-34.5,0-62.5-28-62.5-62.5H51.7c0,39.8,30.5,72.5,69.4,76V246h13.9v-48.9c38.9-3.5,69.4-36.2,69.4-76H190.5z"/><path fill="#000000" d="M128,169.6c26.8,0,48.6-21.7,48.6-48.6V58.6c0-26.9-21.8-48.6-48.6-48.6c-26.8,0-48.6,21.7-48.6,48.6v62.5C79.4,147.9,101.2,169.6,128,169.6z"/></g></g>
</svg>